<?xml version="1.0" encoding="UTF-8" standalone="no"?> <svg width="171px" height="170px" viewBox="0 0 171 170" version="1.1" xmlns="http://www.w3.org/2000/svg" xmlns:xlink="http://www.w3.org/1999/xlink"><defs><linearGradient x1="50%" y1="1.62870588%" x2="50%" y2="99.3914118%" id="linearGradient-1"><stop stop-color="#F7F3EA" offset="0%"></stop><stop stop-color="#EBDDC3" offset="99.49%"></stop></linearGradient><radialGradient cx="50.2297875%" cy="50.001026%" fx="50.2297875%" fy="50.001026%" r="65.9127499%" id="radialGradient-2"><stop stop-color="#995C25" offset="0%"></stop><stop stop-color="#7F4C1F" offset="99.49%"></stop></radialGradient></defs><g id="RR" stroke="none" stroke-width="1" fill="none" fill-rule="evenodd"><g id="Artboard-8" transform="translate(-61.000000, -43.000000)"><g id="Group" transform="translate(61.000000, 43.000000)"><rect id="Rectangle-path" fill="url(#linearGradient-1)" x="0" y="0" width="171" height="170"></rect><path d="M98.4,100.3 C102,98.3 105,95.6 107.5,92.4 C109.9,89.1 111.8,85.4 113,81.1 C114.2,76.8 114.8,72.5 114.8,68 C114.8,63.6 114.3,59.3 113.2,54.9 C112.2,50.5 110.5,46.6 108.1,43 C105.8,39.4 102.8,36.6 99.1,34.4 C95.4,32.2 91,31.1 85.7,31.1 C80.5,31.1 76,32.2 72.3,34.3 C68.6,36.4 65.5,39.2 63,42.7 C60.6,46.2 58.8,50.1 57.7,54.5 C56.6,58.9 56.1,63.4 56.1,68 C56.1,72.5 56.7,76.9 57.8,81.1 C59,85.3 60.8,89.1 63.2,92.4 C65.7,95.7 68.7,98.3 72.5,100.3 C76.2,102.3 80.6,103.3 85.8,103.3 C90.6,103.3 94.8,102.3 98.4,100.3 L98.4,100.3 Z M123.7,124 C122.2,129.3 119.9,133.8 116.8,137.4 C113.7,141.1 109.6,143.9 104.5,145.8 C99.4,147.8 93.2,148.7 85.9,148.7 C81.4,148.7 76.9,148.2 72.6,147.2 C68.3,146.2 64.4,144.6 61,142.4 C57.6,140.2 54.7,137.4 52.4,134 C50.1,130.6 48.8,126.6 48.5,121.8 L59.5,121.8 C60.1,125.1 61.2,127.9 62.9,130.2 C64.6,132.5 66.6,134.3 69,135.6 C71.4,137 74,138 76.9,138.6 C79.8,139.2 82.8,139.6 85.8,139.6 C96,139.6 103.4,136.7 108,131 C112.5,125.2 114.8,117 114.8,106.2 L114.8,94.1 L114.5,94.1 C111.9,99.6 108.2,104.1 103.2,107.4 C98.2,110.7 92.5,112.4 85.8,112.4 C78.6,112.4 72.4,111.2 67.3,108.9 C62.2,106.5 58,103.3 54.6,99.1 C51.3,95 48.9,90.1 47.3,84.5 C45.8,78.9 45,73 45,66.7 C45,60.6 45.9,54.8 47.7,49.4 C49.5,43.9 52.1,39.2 55.5,35.1 C58.9,31 63.2,27.8 68.3,25.5 C73.4,23.1 79.2,22 85.7,22 C89.1,22 92.2,22.5 95.2,23.4 C98.2,24.3 100.9,25.6 103.3,27.3 C105.7,29 107.9,30.9 109.9,33.1 C111.8,35.3 113.3,37.6 114.3,40 L114.6,40 L114.6,24.7 L125.6,24.7 L125.6,106.2 C125.9,112.8 125.1,118.7 123.7,124 L123.7,124 Z" id="Shape" fill="url(#radialGradient-2)"></path></g></g></g></svg>